HIERARCHY
ROOT Hips
{
  OFFSET 0.0000 0.0000 0.0000
  CHANNELS 6 Xposition Yposition Zposition Zrotation Xrotation Yrotation
  JOINT LeftHip
  {
    OFFSET 5.5000 0.0000 0.0000
    CHANNELS 3 Zrotation Xrotation Yrotation
    JOINT LeftKnee
    {
      OFFSET -0.0000 -17.5000 0.0000
      CHANNELS 3 Zrotation Xrotation Yrotation
      JOINT LeftAnkle
      {
        OFFSET 0.0000 -17.0000 0.0000
        CHANNELS 3 Zrotation Xrotation Yrotation
        End Site
        {
            OFFSET 0.0000 -4.7000 -2.0000
        }
      }
    }
  }
  JOINT RightHip
  {
    OFFSET -5.5000 -0.0000 -0.0000
    CHANNELS 3 Zrotation Xrotation Yrotation
    JOINT RightKnee
    {
      OFFSET -0.0000 -17.5000 0.0000
      CHANNELS 3 Zrotation Xrotation Yrotation
      JOINT RightAnkle
      {
        OFFSET -0.0000 -17.0000 0.0000
        CHANNELS 3 Zrotation Xrotation Yrotation
        End Site
        {
            OFFSET 0.0000 -4.7000 -2.0000
        }
      }
    }
  }
  JOINT Chest
  {
    OFFSET 0.0000 3.0000 -1.0000
    CHANNELS 3 Zrotation Xrotation Yrotation
    JOINT LeftCollar
    {
      OFFSET 0.0000 18.0000 1.0000
      CHANNELS 3 Zrotation Xrotation Yrotation
      JOINT LeftShoulder
      {
        OFFSET 6.5000 -0.0000 0.0000
        CHANNELS 3 Zrotation Xrotation Yrotation
        JOINT LeftElbow
        {
          OFFSET 0.0000 -11.0000 -0.0000
          CHANNELS 3 Zrotation Xrotation Yrotation
          JOINT LeftWrist
          {
            OFFSET 0.0000 -10.5000 0.0000
            CHANNELS 3 Zrotation Xrotation Yrotation
            End Site
            {
                OFFSET -0.0000 -6.0000 0.0000
            }
          }
        }
      }
    }
    JOINT RightCollar
    {
      OFFSET 0.0000 18.0000 1.0000
      CHANNELS 3 Zrotation Xrotation Yrotation
      JOINT RightShoulder
      {
        OFFSET -6.5000 -0.0000 0.0000
        CHANNELS 3 Zrotation Xrotation Yrotation
        JOINT RightElbow
        {
          OFFSET 0.0000 -11.0000 0.0000
          CHANNELS 3 Zrotation Xrotation Yrotation
          JOINT RightWrist
          {
            OFFSET 0.0000 -10.5000 0.0000
            CHANNELS 3 Zrotation Xrotation Yrotation
            End Site
            {
                OFFSET 0.0000 -6.0000 -0.0000
            }
          }
        }
      }
    }
    JOINT Neck
    {
      OFFSET 0.0000 18.0000 1.0000
      CHANNELS 3 Zrotation Xrotation Yrotation
      JOINT Head
      {
        OFFSET 0.0000 3.0000 0.0000
        CHANNELS 3 Zrotation Xrotation Yrotation
        End Site
        {
            OFFSET -0.0000 7.0000 -0.0000
        }
      }
    }
  }
}
MOTION
Frames:	21
Frame Time:	0.033333
-0.5538 40.7175 0.0145 0.08 -0.00 0.86 -2.61 -2.98 -0.36 -0.00 12.29 0.02 0.51 -6.44 0.30 4.00 -2.78 0.24 -0.00 11.89 0.01 -1.58 -6.62 -0.06 -0.07 0.59 0.01 0.00 0.00 0.00 10.12 -4.79 -3.33 -0.00 -9.61 0.92 -11.35 0.60 -3.93 0.00 0.00 0.00 -10.19 -4.80 3.32 -0.00 -9.27 -0.88 11.35 0.79 3.85 0.00 0.00 0.00 1.59 -5.66 -1.12 
-0.5490 40.7130 0.0482 0.07 -0.03 0.81 -2.61 -2.95 -0.41 -0.00 12.41 0.01 0.52 -6.57 0.42 4.00 -2.73 0.20 -0.00 11.95 -0.02 -1.57 -6.70 0.07 -0.02 0.62 -0.05 0.00 0.00 0.00 10.23 -4.60 -3.36 0.00 -9.62 0.92 -11.41 0.45 -4.24 0.00 0.00 0.00 -9.97 -4.73 3.33 -0.00 -9.31 -0.89 11.15 0.92 4.21 0.00 0.00 0.00 2.04 -5.43 -1.38 
-0.5448 40.7109 0.0568 0.06 -0.05 0.78 -2.61 -2.95 -0.42 0.00 12.48 0.03 0.52 -6.62 0.44 4.00 -2.72 0.20 -0.00 11.99 -0.01 -1.56 -6.73 0.09 0.01 0.64 -0.04 0.00 0.00 0.00 10.22 -4.53 -3.34 -0.00 -9.67 0.94 -11.39 0.47 -4.50 0.00 0.00 0.00 -9.94 -4.72 3.35 -0.00 -9.34 -0.89 11.11 1.03 4.33 0.00 0.00 0.00 2.20 -5.43 -1.47 
-0.5444 40.7102 0.0559 0.06 -0.07 0.76 -2.61 -2.95 -0.41 -0.00 12.51 0.04 0.52 -6.64 0.44 4.00 -2.72 0.21 -0.00 12.01 -0.00 -1.56 -6.74 0.09 0.02 0.66 -0.02 0.00 0.00 0.00 10.19 -4.51 -3.34 -0.00 -9.71 0.94 -11.36 0.50 -4.66 0.00 0.00 0.00 -9.95 -4.72 3.36 -0.00 -9.36 -0.89 11.11 1.09 4.39 0.00 0.00 0.00 2.25 -5.45 -1.51 
-0.5442 40.7099 0.0552 0.06 -0.08 0.74 -2.61 -2.95 -0.40 -0.00 12.53 0.05 0.52 -6.65 0.44 4.01 -2.71 0.22 0.00 12.02 -0.00 -1.56 -6.74 0.09 0.03 0.68 -0.01 0.00 0.00 0.00 10.17 -4.50 -3.34 0.00 -9.74 0.93 -11.34 0.52 -4.76 0.00 0.00 0.00 -9.96 -4.73 3.36 -0.00 -9.36 -0.89 11.12 1.12 4.43 0.00 0.00 0.00 2.27 -5.40 -1.53 
-0.4872 40.7096 0.0605 0.04 -0.08 0.74 -2.69 -2.94 -0.38 0.00 12.55 0.05 0.62 -6.67 0.44 3.93 -2.71 0.24 -0.00 12.05 0.00 -1.46 -6.76 0.09 0.05 0.69 -0.00 0.00 0.00 0.00 10.16 -4.50 -3.34 0.00 -9.72 0.93 -11.33 0.51 -4.88 0.00 0.00 0.00 -9.97 -4.73 3.35 -0.00 -9.37 -0.89 11.12 1.14 4.45 0.00 0.00 0.00 2.28 -5.37 -1.54 
-0.4514 40.7055 0.1102 0.03 -0.09 0.73 -2.74 -2.89 -0.38 -0.00 12.63 0.06 0.68 -6.79 0.44 3.88 -2.64 0.25 -0.00 12.08 -0.00 -1.40 -6.86 0.09 0.12 0.69 0.01 0.00 0.00 0.00 10.23 -4.60 -3.32 0.00 -9.75 0.93 -11.40 0.57 -4.93 0.00 0.00 0.00 -9.88 -4.83 3.34 0.00 -9.41 -0.90 11.05 1.23 4.48 0.00 0.00 0.00 2.36 -5.35 -1.54 
-0.4339 40.7017 0.1269 0.03 -0.09 0.73 -2.76 -2.89 -0.37 -0.00 12.69 0.07 0.70 -6.85 0.44 3.85 -2.68 0.27 0.00 12.22 -0.01 -1.38 -6.96 0.09 0.15 0.76 0.02 0.00 0.00 0.00 10.08 -4.70 -3.34 0.00 -9.78 0.93 -11.31 0.58 -4.98 0.00 0.00 0.00 -10.02 -4.81 3.33 -0.00 -9.39 -0.89 11.12 1.14 4.47 0.00 0.00 0.00 2.36 -5.26 -1.55 
-0.4403 40.6996 0.1270 0.04 -0.09 0.75 -2.76 -2.90 -0.36 0.00 12.72 0.07 0.69 -6.86 0.41 3.86 -2.73 0.28 -0.00 12.33 -0.02 -1.39 -7.01 0.07 0.16 0.79 0.03 0.00 0.00 0.00 10.03 -4.76 -3.33 -0.00 -9.77 0.93 -11.29 0.57 -5.02 0.00 0.00 0.00 -10.07 -4.82 3.33 0.00 -9.38 -0.90 11.14 1.14 4.46 0.00 0.00 0.00 2.27 -5.26 -1.55 
-0.4504 40.6953 0.1716 0.04 -0.09 0.76 -2.74 -2.87 -0.35 -0.00 12.80 0.08 0.67 -6.97 0.37 3.88 -2.66 0.30 -0.00 12.35 -0.03 -1.41 -7.10 0.04 0.24 0.87 0.05 0.00 0.00 0.00 10.09 -4.83 -3.32 -0.00 -9.77 0.93 -11.37 0.59 -5.10 0.00 0.00 0.00 -9.99 -4.86 3.33 -0.00 -9.41 -0.90 11.05 1.15 4.47 0.00 0.00 0.00 2.21 -5.18 -1.56 
-0.4504 40.6934 0.1720 0.04 -0.09 0.78 -2.74 -2.92 -0.35 0.00 12.90 0.10 0.67 -7.02 0.34 3.89 -2.66 0.30 0.00 12.37 -0.04 -1.41 -7.11 0.02 0.26 0.90 0.05 0.00 0.00 0.00 10.07 -4.97 -3.30 -0.00 -9.79 0.94 -11.34 0.69 -5.15 0.00 0.00 0.00 -9.99 -5.00 3.30 0.00 -9.45 -0.91 11.07 1.23 4.47 0.00 0.00 0.00 2.14 -5.20 -1.57 
-0.4478 40.6931 0.1652 0.02 -0.09 0.79 -2.73 -2.96 -0.35 0.00 12.95 0.10 0.67 -7.03 0.33 3.89 -2.67 0.29 0.00 12.37 -0.04 -1.40 -7.10 0.02 0.25 0.98 0.14 0.00 0.00 0.00 10.07 -4.83 -3.25 -0.00 -9.69 0.94 -11.32 0.52 -5.30 0.00 0.00 0.00 -10.00 -5.01 3.36 -0.00 -9.42 -0.90 11.09 1.15 4.38 0.00 0.00 0.00 2.10 -5.04 -1.52 
-0.4371 40.6935 0.1538 0.01 -0.09 0.80 -2.73 -2.99 -0.36 0.00 12.98 0.10 0.69 -7.02 0.33 3.89 -2.69 0.29 0.00 12.37 -0.04 -1.38 -7.08 0.02 0.30 1.01 0.17 0.00 0.00 0.00 10.15 -4.81 -3.25 0.00 -9.66 0.92 -11.37 0.50 -5.34 0.00 0.00 0.00 -9.92 -5.04 3.35 0.00 -9.41 -0.90 11.04 1.16 4.43 0.00 0.00 0.00 2.17 -5.09 -1.53 
-0.4283 40.6903 0.1776 -0.00 -0.09 0.81 -2.73 -3.00 -0.36 -0.00 13.09 0.11 0.71 -7.12 0.33 3.89 -2.65 0.29 0.00 12.38 -0.05 -1.37 -7.12 0.02 0.33 1.03 0.27 0.00 0.00 0.00 10.15 -4.80 -3.20 -0.00 -9.65 0.93 -11.37 0.53 -5.44 0.00 0.00 0.00 -9.92 -5.07 3.39 -0.00 -9.40 -0.90 11.05 1.16 4.36 0.00 0.00 0.00 2.25 -5.21 -1.56 
-0.4200 40.6911 0.1254 -0.01 -0.09 0.81 -2.74 -3.14 -0.36 0.00 13.18 0.12 0.72 -7.08 0.31 3.88 -2.76 0.28 0.00 12.43 -0.05 -1.36 -7.06 0.03 0.35 1.10 0.30 0.00 0.00 0.00 10.13 -4.93 -3.19 -0.00 -9.69 0.93 -11.33 0.59 -5.49 0.00 0.00 0.00 -9.92 -5.20 3.35 0.00 -9.51 -0.92 11.12 1.54 4.41 0.00 0.00 0.00 2.28 -5.27 -1.62 
-0.4087 40.6905 0.0387 -0.02 -0.09 0.81 -2.75 -3.38 -0.35 0.00 13.39 0.15 0.73 -7.04 0.27 3.87 -2.97 0.27 0.00 12.56 -0.07 -1.33 -6.98 0.06 0.36 1.19 0.30 0.00 0.00 0.00 10.09 -5.25 -3.15 -0.00 -9.89 0.96 -11.29 0.84 -5.56 0.00 0.00 0.00 -10.01 -5.66 3.26 0.00 -9.86 -0.95 11.18 2.20 4.41 0.00 0.00 0.00 2.28 -5.27 -1.65 
-0.3692 40.6795 0.0686 -0.05 -0.09 0.82 -2.79 -3.50 -0.35 -0.00 13.73 0.19 0.79 -7.26 0.24 3.83 -3.03 0.28 0.00 12.80 -0.09 -1.27 -7.16 0.08 0.35 1.36 0.40 0.00 0.00 0.00 10.21 -5.29 -3.08 -0.00 -9.87 0.95 -11.33 0.70 -5.71 0.00 0.00 0.00 -10.12 -6.05 3.29 0.00 -10.59 -0.98 11.12 2.58 4.27 0.00 0.00 0.00 2.37 -5.17 -1.68 
-0.2884 40.6673 0.0689 -0.12 -0.15 0.80 -2.86 -3.68 -0.37 0.00 14.22 0.24 0.92 -7.51 0.27 3.77 -3.09 0.27 -0.00 13.05 -0.13 -1.13 -7.29 0.17 0.31 1.56 0.40 0.00 0.00 0.00 10.22 -5.28 -3.10 0.00 -9.94 0.95 -11.23 0.62 -5.76 0.00 0.00 0.00 -10.45 -6.59 3.22 -0.00 -12.00 -1.08 10.74 2.92 4.20 0.00 0.00 0.00 2.55 -5.11 -1.92 
-0.1436 40.6516 0.0670 -0.24 -0.27 0.73 -3.00 -3.83 -0.44 0.00 14.78 0.28 1.15 -7.81 0.43 3.64 -3.15 0.23 0.00 13.40 -0.18 -0.88 -7.46 0.38 0.24 1.82 0.34 0.00 0.00 0.00 10.34 -5.14 -3.15 0.00 -10.04 0.95 -11.22 0.51 -5.72 0.00 0.00 0.00 -10.55 -7.08 3.19 0.00 -14.46 -1.30 9.19 3.00 3.72 0.00 0.00 0.00 2.78 -4.97 -2.21 
-0.0420 40.6352 0.0549 -0.37 -0.39 0.60 -3.06 -4.02 -0.51 0.00 15.39 0.35 1.31 -8.12 0.60 3.59 -3.21 0.18 0.00 13.71 -0.23 -0.70 -7.58 0.63 0.21 2.17 0.28 0.00 0.00 0.00 10.38 -5.04 -3.17 0.00 -10.07 0.96 -11.17 0.44 -5.81 0.00 0.00 0.00 -10.80 -7.80 3.15 -0.00 -18.32 -1.62 6.85 3.14 3.19 0.00 0.00 0.00 3.18 -4.90 -2.49 
-0.0585 40.6230 0.0132 -0.46 -0.46 0.43 -2.96 -4.25 -0.57 0.00 15.91 0.41 1.26 -8.34 0.78 3.68 -3.34 0.10 -0.00 13.95 -0.27 -0.72 -7.61 0.92 0.22 2.53 0.21 0.00 0.00 0.00 10.39 -5.04 -3.17 0.00 -10.09 0.97 -11.17 0.44 -5.97 0.00 0.00 0.00 -10.97 -8.75 2.00 0.00 -23.95 -2.52 3.72 3.89 3.39 0.00 0.00 0.00 3.70 -4.97 -2.75 
